<?xml version="1.0" encoding="utf-8"?>
<svg xmlns="http://www.w3.org/2000/svg" viewBox="0 0 32 32" fill="none" stroke="#040505" stroke-width="3" stroke-linecap="round" stroke-linejoin="round" stroke-miterlimit="10">
  <!-- Center divider -->
  <line x1="16" y1="4" x2="16" y2="28"/>

  <!-- Sun (left half) -->
  <path d="M16,22c-3.87,0-7-3.13-7-7s3.13-7,7-7"/>
  <line x1="7.4" y1="7.4" x2="9.1" y2="9.1"/>
  <line x1="4" y1="15" x2="6" y2="15"/>
  <line x1="7.4" y1="22.6" x2="9.1" y2="20.9"/>

  <!-- Moon (right half) -->
  <path d="M16,13.5C17.2,11.43,19.48,10,22.09,10c0.16,0,0.31,0.01,0.47,0.02c-1.67,0.88-2.8,2.63-2.8,4.64c0,2.9,2.35,5.25,5.25,5.25c1.6,0,3.03-0.72,3.99-1.85C28.48,21.43,25.59,24,22.09,24c-2.61,0-4.89-1.43-6.09-3.55"/>
</svg>